<svg width="20" height="16" viewBox="0 0 20 16" fill="none" xmlns="http://www.w3.org/2000/svg">
<path d="M10.96 12.6667H16.88C17.0689 12.6667 17.2497 12.6003 17.4133 12.5067C17.5769 12.413 17.7456 12.2955 17.84 12.1333C17.9344 11.9712 18.0001 11.7872 18 11.6C17.9999 11.4127 17.9346 11.2288 17.84 11.0667L13.84 4.18668C13.7456 4.02453 13.6302 3.90694 13.4667 3.81332C13.3031 3.71973 13.0689 3.65332 12.88 3.65332C12.6911 3.65332 12.5102 3.71973 12.3467 3.81332C12.1831 3.90694 12.0677 4.02453 11.9733 4.18668L10.96 5.94667L8.93332 2.53321C8.83883 2.37109 8.72362 2.20026 8.56 2.10668C8.39638 2.01306 8.21559 2 8.02668 2C7.83777 2 7.65694 2.01306 7.49332 2.10668C7.32974 2.20026 7.16117 2.37109 7.06668 2.53321L2.10667 11.0667C2.01211 11.2288 2.00008 11.4127 2 11.6C1.99992 11.7872 2.01225 11.9711 2.10667 12.1333C2.20109 12.2955 2.36973 12.413 2.53333 12.5067C2.69694 12.6003 2.87775 12.6667 3.06667 12.6667H6.8C8.27928 12.6667 9.356 12.0031 10.1067 10.7467L11.92 7.59999L12.88 5.94667L15.8133 10.96H11.92L10.96 12.6667ZM6.74668 10.96H4.13332L8.02668 4.24L10 7.59999L8.69287 9.87863C8.19438 10.6938 7.626 10.96 6.74668 10.96Z" fill="#00DC82"/>
</svg>
