<svg width="20" height="18" viewBox="0 0 20 18" fill="none" xmlns="http://www.w3.org/2000/svg">
<path d="M2.70082e-05 9.01199C2.70082e-05 7.73182 1.6032 6.5186 4.06114 5.76625C3.49392 3.26105 3.74602 1.26791 4.85682 0.629796C5.11285 0.480114 5.41222 0.409212 5.73915 0.409212V1.28761C5.55796 1.28761 5.41221 1.32306 5.29011 1.39002C4.7544 1.69727 4.522 2.86715 4.70319 4.37185C4.74652 4.74211 4.81743 5.13208 4.90408 5.52991C5.67613 5.34084 6.51907 5.1951 7.40535 5.10056C7.93712 4.37185 8.48857 3.7101 9.04397 3.13106C7.75986 1.93754 6.55452 1.28367 5.73521 1.28367V0.405273C6.81844 0.405273 8.23648 1.17732 9.67028 2.51658C11.1041 1.1852 12.5221 0.42103 13.6053 0.42103V1.29943C12.79 1.29943 11.5807 1.94936 10.2966 3.135C10.848 3.71403 11.3995 4.37185 11.9234 5.10056C12.8136 5.1951 13.6565 5.34084 14.4286 5.53385C14.5192 5.13995 14.5861 4.75787 14.6334 4.39154C14.8186 2.88684 14.5901 1.71696 14.0583 1.40578C13.9402 1.33488 13.7865 1.30337 13.6053 1.30337V0.424968C13.9362 0.424968 14.2356 0.49587 14.4956 0.645552C15.6024 1.28367 15.8506 3.27287 15.2794 5.77019C17.7295 6.52648 19.3248 7.73575 19.3248 9.01199C19.3248 10.2922 17.7216 11.5054 15.2637 12.2577C15.8309 14.7629 15.5788 16.7561 14.468 17.3942C14.2119 17.5439 13.9126 17.6148 13.5817 17.6148C12.4985 17.6148 11.0804 16.8427 9.64664 15.5035C8.21284 16.8348 6.7948 17.599 5.71158 17.599C5.3807 17.599 5.08134 17.5281 4.82136 17.3784C3.7145 16.7403 3.46635 14.7511 4.0375 12.2538C1.59532 11.5014 2.70082e-05 10.2882 2.70082e-05 9.01199ZM5.12861 6.38468C5.27435 6.89281 5.45554 7.4167 5.66037 7.94058C5.82187 7.62546 5.99125 7.31034 6.17638 6.99522C6.35758 6.6801 6.55058 6.37286 6.7436 6.0735C6.18426 6.15622 5.64462 6.25863 5.12861 6.38468ZM6.93267 10.5797C7.23991 11.1115 7.55503 11.6157 7.88197 12.0844C8.46888 12.1356 9.06367 12.1632 9.6624 12.1632C10.2572 12.1632 10.852 12.1356 11.4349 12.0884C11.7619 11.6196 12.0809 11.1194 12.3882 10.5915C12.6876 10.0755 12.9593 9.55163 13.2075 9.02381C12.9633 8.49598 12.6875 7.96816 12.3921 7.45215C12.0849 6.92038 11.7698 6.41619 11.4428 5.94745C10.8559 5.89624 10.2611 5.86867 9.6624 5.86867C9.06761 5.86867 8.47282 5.89624 7.88985 5.94351C7.56291 6.41225 7.24385 6.9125 6.93661 7.44033C6.63724 7.95634 6.36545 8.48023 6.1173 9.00805C6.36545 9.53588 6.63724 10.0637 6.93267 10.5797ZM5.66037 10.0676C5.44767 10.5955 5.26647 11.1233 5.11679 11.6354C5.6328 11.7614 6.17638 11.8678 6.73966 11.9505C6.54665 11.6472 6.35363 11.336 6.17244 11.0169C5.99125 10.7018 5.82187 10.3828 5.66037 10.0676ZM9.65452 14.2706C10.0208 13.8924 10.3872 13.4709 10.7496 13.0101C10.3951 13.0258 10.0327 13.0377 9.66634 13.0377C9.29607 13.0377 8.92974 13.0298 8.57129 13.0101C8.9258 13.4709 9.29213 13.8924 9.65452 14.2706ZM12.5851 11.9505C13.1445 11.8678 13.6841 11.7654 14.2001 11.6393C14.0544 11.1312 13.8732 10.6073 13.6684 10.0834C13.5069 10.3985 13.3375 10.7136 13.1524 11.0288C12.9672 11.3439 12.7781 11.6511 12.5851 11.9505ZM9.67421 3.75342C9.30789 4.13157 8.94156 4.55304 8.57917 5.0139C8.93368 4.99815 9.29607 4.98633 9.6624 4.98633C10.0327 4.98633 10.399 4.99421 10.7574 5.0139C10.4029 4.55304 10.0366 4.13157 9.67421 3.75342ZM12.5891 6.0735C12.7821 6.3768 12.9751 6.68798 13.1563 7.00704C13.3375 7.32216 13.5069 7.63728 13.6684 7.9524C13.8811 7.42457 14.0623 6.89675 14.2119 6.38468C13.6959 6.26257 13.1524 6.15622 12.5891 6.0735ZM16.1539 11.0051C17.5483 10.4103 18.4503 9.63041 18.4503 9.01199C18.4503 8.39357 17.5483 7.60971 16.1539 7.01886C15.8151 6.87311 15.4449 6.74313 15.0628 6.62102C14.8382 7.39306 14.5428 8.19662 14.1765 9.01987C14.5389 9.83918 14.8304 10.6388 15.051 11.4069C15.4409 11.2848 15.8112 11.1509 16.1539 11.0051ZM14.0347 16.634C14.5704 16.3267 14.8028 15.1568 14.6216 13.6521C14.5783 13.2819 14.5074 12.8919 14.4207 12.4941C13.6487 12.6831 12.8057 12.8289 11.9194 12.9234C11.3877 13.6521 10.8362 14.3139 10.2808 14.8929C11.5649 16.0864 12.7703 16.7403 13.5896 16.7403C13.7668 16.7364 13.9165 16.7009 14.0347 16.634ZM4.69138 13.6324C4.50624 15.1371 4.73471 16.307 5.26647 16.6182C5.38464 16.6891 5.53826 16.7206 5.71946 16.7206C6.53483 16.7206 7.7441 16.0707 9.02822 14.885C8.47676 14.306 7.9253 13.6482 7.40141 12.9195C6.5112 12.8249 5.66825 12.6792 4.89621 12.4862C4.80561 12.884 4.73471 13.2661 4.69138 13.6324ZM3.17486 11.0051C3.51362 11.1509 3.88388 11.2809 4.26597 11.403C4.49049 10.6309 4.78591 9.82736 5.15224 9.00411C4.78985 8.1848 4.49837 7.38518 4.27778 6.61708C3.88782 6.73919 3.51756 6.87311 3.17092 7.01886C1.77652 7.61365 0.874486 8.39357 0.874486 9.01199C0.878425 9.63041 1.78045 10.4143 3.17486 11.0051Z" fill="#61DAFB"/>
<path d="M9.66631 10.8121C8.67213 10.8121 7.86618 10.0062 7.86618 9.01198C7.86618 8.0178 8.67213 7.21185 9.66631 7.21185C10.6605 7.21185 11.4664 8.0178 11.4664 9.01198C11.4664 10.0062 10.6605 10.8121 9.66631 10.8121Z" fill="#61DAFB"/>
</svg>
