<svg width="20" height="20" viewBox="0 0 20 20" fill="none" xmlns="http://www.w3.org/2000/svg">
<path d="M10.1826 4.41846C7.56381 4.41846 5.92785 5.72756 5.27244 8.34577C6.2547 7.03724 7.39981 6.54582 8.70891 6.87324C9.45575 7.05952 9.99002 7.60122 10.5803 8.2012C11.5431 9.17832 12.6574 10.3091 15.091 10.3091C17.7092 10.3091 19.3452 9.00004 20 6.3824C19.0183 7.69093 17.8726 8.18235 16.5641 7.85436C15.8167 7.66808 15.2824 7.12638 14.6922 6.5264C13.7293 5.54985 12.6151 4.41846 10.1826 4.41846ZM5.27244 10.3091C2.65538 10.3091 1.01828 11.6182 0.364014 14.2365C1.3457 12.9274 2.49138 12.4365 3.79991 12.7639C4.54732 12.9502 5.08159 13.4919 5.67186 14.0919C6.63469 15.069 7.74894 16.1998 10.1826 16.1998C12.8008 16.1998 14.4367 14.8913 15.091 12.2731C14.1093 13.5816 12.9642 14.073 11.6551 13.7456C10.9083 13.5588 10.374 13.0165 9.78317 12.4171C8.82091 11.44 7.70609 10.3091 5.27244 10.3091Z" fill="#49BAFA"/>
</svg>
