<svg width="18" height="18" viewBox="0 0 18 18" fill="none" xmlns="http://www.w3.org/2000/svg">
<path fill-rule="evenodd" clip-rule="evenodd" d="M0.663918 0H17.0406C17.4072 0 17.7045 0.293906 17.7045 0.656458V16.8491C17.7045 17.2117 17.4072 17.5055 17.0406 17.5055H0.663918C0.297246 17.5055 0 17.2117 0 16.8491V0.656458C0 0.293906 0.297246 0 0.663918 0ZM9.84182 9.31322V7.87749H3.54089V9.31322H5.79043V15.7058H7.58125V9.31322H9.84182ZM10.5558 15.537C10.8446 15.6826 11.1861 15.7918 11.5804 15.8646C11.9747 15.9374 12.3903 15.9738 12.8272 15.9738C13.253 15.9738 13.6574 15.9337 14.0407 15.8537C14.4238 15.7736 14.7598 15.6417 15.0486 15.4579C15.3373 15.2741 15.566 15.0339 15.7345 14.7372C15.9029 14.4406 15.9871 14.0739 15.9871 13.6372C15.9871 13.3205 15.939 13.043 15.8427 12.8046C15.7465 12.5662 15.6077 12.3542 15.4262 12.1686C15.2448 11.9829 15.0273 11.8164 14.7737 11.6691C14.52 11.5217 14.2341 11.3824 13.9157 11.2514C13.6824 11.1568 13.4732 11.0648 13.2881 10.9757C13.103 10.8866 12.9456 10.7955 12.8161 10.7028C12.6865 10.6099 12.5866 10.5117 12.5162 10.4079C12.4458 10.3042 12.4107 10.1868 12.4107 10.0558C12.4107 9.93567 12.4421 9.82741 12.5051 9.731C12.568 9.63451 12.6568 9.5517 12.7716 9.48255C12.8864 9.4134 13.0271 9.35974 13.1937 9.3215C13.3603 9.28332 13.5455 9.2642 13.7491 9.2642C13.8972 9.2642 14.0536 9.27511 14.2183 9.29692C14.3831 9.31881 14.5488 9.35247 14.7154 9.39792C14.882 9.44343 15.044 9.50073 15.2013 9.56994C15.3587 9.63909 15.504 9.71914 15.6373 9.81011V8.17778C15.367 8.07585 15.0717 8.0003 14.7515 7.95122C14.4312 7.90207 14.0638 7.87749 13.6491 7.87749C13.2271 7.87749 12.8272 7.92207 12.4495 8.01128C12.0719 8.10042 11.7396 8.23966 11.4527 8.42892C11.1657 8.61818 10.9389 8.85929 10.7724 9.15224C10.6057 9.44525 10.5224 9.79556 10.5224 10.2032C10.5224 10.7237 10.6751 11.1677 10.9806 11.5353C11.2861 11.9029 11.7498 12.2141 12.3718 12.4689C12.6162 12.5672 12.8438 12.6636 13.0549 12.7582C13.2659 12.8528 13.4482 12.9511 13.6019 13.053C13.7555 13.1549 13.8768 13.2659 13.9657 13.386C14.0545 13.5061 14.099 13.6426 14.099 13.7955C14.099 13.9084 14.0712 14.013 14.0156 14.1094C13.9601 14.2059 13.8758 14.2896 13.7629 14.3605C13.65 14.4315 13.5094 14.487 13.3409 14.527C13.1725 14.5671 12.9752 14.5871 12.7494 14.5871C12.3644 14.5871 11.983 14.5207 11.6054 14.3879C11.2278 14.255 10.8779 14.0557 10.5558 13.7901V15.537Z" fill="#4178C0"/>
</svg>
