<svg width="448" height="512" viewBox="0 0 448 512" fill="none" xmlns="http://www.w3.org/2000/svg">
<path d="M416 26H31.9C14.3 26 0 40.5 0 58.3V441.7C0 459.5 14.3 474 31.9 474H416C433.6 474 448 459.5 448 441.7V58.3C448 40.5 433.6 26 416 26ZM135.4 410H69V196.2H135.5V410H135.4ZM102.2 167C80.9 167 63.7 149.7 63.7 128.5C63.7 107.3 80.9 90 102.2 90C123.4 90 140.7 107.3 140.7 128.5C140.7 149.8 123.5 167 102.2 167ZM384.3 410H317.9V306C317.9 281.2 317.4 249.3 283.4 249.3C248.8 249.3 243.5 276.3 243.5 304.2V410H177.1V196.2H240.8V225.4H241.7C250.6 208.6 272.3 190.9 304.6 190.9C371.8 190.9 384.3 235.2 384.3 292.8V410Z" fill="#555555"/>
</svg>
